<svg xmlns="http://www.w3.org/2000/svg" height="800" width="1200" version="1.0" viewBox="-79.83255 -30 691.8821 180"><path fill="#FFF" d="M0 0h100.378v120H0z"/><path d="M532.217 98.877c0 2.498-1.936 4.439-4.44 4.439-2.496 0-4.44-1.941-4.44-4.439 0-2.522 1.944-4.445 4.44-4.445 2.504 0 4.44 1.922 4.44 4.445m-8.2 0c0 2.088 1.61 3.75 3.76 3.75 2.15 0 3.756-1.662 3.756-3.75 0-2.151-1.605-3.813-3.756-3.813-2.15-.001-3.76 1.662-3.76 3.813m2.776 2.57h-.626V96.29h1.951c1.164 0 1.67.486 1.67 1.403 0 .95-.594 1.371-1.285 1.447l1.537 2.307h-.743l-1.449-2.307h-1.055zm.834-2.804c.753 0 1.547-.046 1.547-.95 0-.686-.594-.869-1.226-.869h-1.155v1.818h.834m-1.951-30.227c-.885-3.964-2.771-5.751-9.106-5.751h-2.943v32.534c0 5.003 1.37 6.521 5.987 6.521v1.316h-19.181v-1.316c4.498 0 5.894-1.518 5.894-6.521V62.664h-2.946c-6.308 0-8.155 1.787-9.018 5.751h-1.292v-8.43h33.818v8.43m-67.542 34.62v-1.316c4.486 0 5.978-1.518 5.978-6.521v-27.38c0-5.042-1.491-6.541-5.978-6.541v-1.292h30.874v8.43h-1.231c-.876-3.964-2.685-5.751-9.003-5.751h-3.662c-3.184 0-3.878 1.67-3.878 5.31v10.94h7.441c3.472 0 4.584-1.824 5.027-4.424h1.208v12.297h-1.208c-.443-2.529-1.556-4.583-5.027-4.583h-7.441v13.411c0 4.359.495 4.713 3.878 4.713h5.914c5.116 0 7.815-2.517 8.309-5.899h1.206v8.606zm-44.572 0L401.67 80.4c5.914-.283 11.285-3.057 11.285-9.06 0-6.323-3.993-8.677-9.191-8.677-3.655 0-4.513.521-4.513 4.304V95.06c0 4.986 1.47 6.658 5.979 6.658v1.316h-19.16v-1.316c4.506 0 5.987-1.672 5.987-6.658V67.734c0-3.4-.087-6.457-4.678-6.457v-1.292h16.384c8.416 0 16.557 2.089 16.557 10.67 0 7.467-6.4 10.301-10.242 11.049l8.591 14.041c2.423 3.909 3.383 5.974 6.765 5.974 3.983 0 4.951-2.126 4.951-6.606V67.817c0-5.042-1.489-6.541-6.004-6.541v-1.292h30.979v8.43h-1.325c-.847-3.964-2.584-5.751-8.987-5.751h-3.657c-3.234 0-3.9 1.67-3.9 5.31v10.94h7.435c3.488 0 4.613-1.824 5.144-4.424h1.119v12.297h-1.119c-.428-2.529-1.655-4.583-5.144-4.583h-7.435v13.411c0 4.359.526 4.713 3.9 4.713h5.896c5.1 0 7.776-2.517 8.416-5.899h1.213v8.606h-42.141zm-30.164-34.62c-.898-3.964-2.708-5.751-9.029-5.751h-2.953v32.534c0 5.003 1.394 6.521 5.888 6.521v1.316h-19.14v-1.316c4.58 0 5.989-1.518 5.989-6.521V62.664h-2.974c-6.317 0-8.241 1.787-9.097 5.751h-1.23v-8.43h33.814v8.43zm-51.934 35.949c-6.273 0-11.561-1.805-14.351-2.833V91.372h1.345c1.259 4.792 4.049 9.328 13.441 9.328 6.827 0 11.599-3.686 11.435-9.328-.191-5.998-4.415-9.095-13.266-13.334-9.731-4.678-12.84-9.286-12.766-14.981 0-9.188 7.376-13.841 18.2-13.841 5.303 0 9.979 1.085 12.491 1.881v8.888h-1.217c-.692-4.308-4.333-7.262-11.274-7.179-6.321.075-10.493 2.968-10.731 7.977-.272 4.636 2.779 7.191 8.236 9.794 12.655 5.974 17.247 9.824 17.782 17.589.6 9.723-6.527 16.198-19.325 16.198m-64.195-1.329v-1.316c4.513 0 6.081-1.518 6.081-6.521v-27.38c0-5.042-1.568-6.541-6.081-6.541v-1.292h30.95v8.43h-1.28c-.816-3.964-2.619-5.751-8.932-5.751h-3.74c-3.104 0-3.904 1.67-3.904 5.31v10.94h7.448c3.466 0 4.693-1.824 5.146-4.424h1.203v12.297h-1.203c-.452-2.529-1.563-4.583-5.146-4.583h-7.448v13.411c0 4.359.513 4.713 3.904 4.713h5.989c5.099 0 7.802-2.517 8.329-5.899h1.229v8.606zm-2.86-34.62c-.768-3.964-2.672-5.751-9.021-5.751h-2.918v32.534c0 5.003 1.357 6.521 5.87 6.521v1.316h-19.159v-1.316c4.598 0 5.976-1.518 5.976-6.521V62.664h-2.954c-6.322 0-8.216 1.787-9.111 5.751h-1.167v-8.43h33.794v8.43zm-44.827 34.62v-1.316c2.5 0 4.42-.624 4.42-2.579 0-.793-.166-1.757-.62-2.832l-2.261-6.544h-16.203l-2.074 5.787c-.34.948-.794 2.26-.794 3.274 0 1.875.794 2.894 4.087 2.894v1.316h-13.365v-1.316c3.401 0 4.507-2.359 6.326-7.29l12.688-34.444h5.972L231.9 95.452c1.725 4.596 2.405 6.08 6.497 6.268v1.316h-17.602zm-22.958-34.62c-.903-3.964-2.71-5.751-9.037-5.751h-2.964v32.534c0 5.003 1.401 6.521 5.93 6.521v1.316h-19.178v-1.316c4.501 0 5.896-1.518 5.896-6.521V62.664h-2.863c-6.432 0-8.247 1.787-9.109 5.751h-1.303v-8.43h33.901v8.43zm-51.975 35.949c-6.238 0-11.529-1.805-14.305-2.833V91.372h1.331c1.273 4.792 4.052 9.328 13.44 9.328 6.833 0 11.597-3.686 11.427-9.328-.174-5.998-4.421-9.095-13.266-13.334-9.729-4.678-12.824-9.286-12.756-14.981 0-9.188 7.384-13.841 18.224-13.841 5.305 0 9.969 1.085 12.494 1.881v8.888h-1.236c-.676-4.308-4.32-7.262-11.258-7.179-6.328.075-10.493 2.968-10.749 7.977-.299 4.636 2.751 7.191 8.243 9.794 12.66 5.974 17.26 9.824 17.756 17.589.62 9.723-6.488 16.198-19.345 16.198m68.529-37.257l-6.945 19.091h13.607zM9.744 116.61c-2.119-.681-5.907-1.354-8.625-1.792v2.824c1.552-.243 3.298-.395 4.401-.294-.838.149-2.674.444-4.401.732v.817h18.359c-2.69-.595-4.795-1.028-5.915-1.199-4.771-.795-4.281-.816-3.819-1.088M1.972 79.667s-.339-.029-.851-.059v.855c.611 0 .952.043.952.043m-.711-5.538c-.094 0-.157 0-.243-.023v1.097c.313 0 .487.027.487.027m.184 1.168c-.183-.03-.397-.03-.668-.054v.93c.485.034.767.056.767.056M13.658 52.72l.508-1.622s-2.191 0-4.628.078c-2.354.192-6.423.699-8.417.286v1.207a3.08 3.08 0 00.511-.098c4.23-.721 12.026.149 12.026.149m.699-2.244l.433-1.613s-.958 0-3.994.102c-2.756.105-7.949.434-9.674.237v1.158a65.059 65.059 0 016.202-.296c3.999-.001 7.033.412 7.033.412m.433-2.273c.237-.304.086-1.606.086-1.606-1.044-.187-3.329-.107-6.209.351-2.426.36-5.364.533-7.545.293v1.148c3.524-.409 10.994-.491 13.668-.186m.318-2.461s.417-1.186-.837-1.724c0 0-1.565.169-6.947.538-3.318.27-5.096.467-6.202.488v.858c4.057-.537 11.43-.879 13.986-.16M5.742 63.864l.462-1.483s-.342-.377-3.906.392c-.396.084-.8.131-1.176.177v.935c2.53-.094 4.62-.021 4.62-.021m-.706 2.006l.41-1.18c-1.101 0-2.643.181-4.324.346v.834c1.79-.094 3.914 0 3.914 0m6.287 6.315s-5.581-2.355-7.67-2.129c0 0 3.671-.323 7.67 1.693l-.527-1.837-6.39-1.255s.279 1.255-1.198.638c-.354.415-1.106.415-2.087.415v1.033c4.157.173 8.738 1.124 10.425 2.401M3.73 68.842l.955-2.104c-.289.268-1.72.565-3.564.804v1.086c1.994 0 2.609.214 2.609.214m2.657-7.375l.204-1.632c-.804-.046-3.21.239-5.469.649v1.033c3.185-.339 5.265-.05 5.265-.05M1.892 84.949c-.154-.059-.428-.093-.771-.194v1.084c.323.042.514.07.514.07m-.093 1.48s-.149 0-.42-.051v.986h.144m5.325-28.746s.325-1.651-.523-1.819c0 0-2.89.117-4.946.276v1.114c2.655-.21 4.928-.162 5.469.429M1.996 82.291s-.198 0-.874-.051v1.008c.488.082.783.173.783.173m9.861-7.519l-.125-1.604s-4.842-1.378-8.813-2.204c-.688-.149-1.222-.243-1.707-.348v.754l.499 1.191c.652-.128 10.146 2.211 10.146 2.211m-.655-62.79c5.769.059 14.104 0 18.81-.14 4.728-.09 8.973.487 8.973.487l1.323-1.784c-.731-.115-3.527.166-6.285.464-2.729.31-6.112.063-6.39-.58-4.051.219-21.062.384-26.42.304v1.248c3.986-.09 7.749-.064 9.989.001m4.581 1.755c4.54-.25 11.192.372 15.078.372 3.879 0 6.84.688 6.84.688.044-.227.114-.424.206-.661l14.949 7.591c-6.41-6.054-12.847-8.341-14.415-8.81-1.588-.194-5.146.097-7.057.199-1.876.094-3.668.27-5.049-.393-3.141.126-15.557 0-19.329 0-1.187 0-3.282.054-5.797.074v1.311c4.24.001 10.066-.205 14.574-.371" fill="#0067B1"/><path d="M11.448 17.541c5.126-.27 14.406-.174 18.92-.174 4.492 0 6.717.572 6.717.572.23-.572.431-1.305.431-1.305-1.601-.462-3.475-.559-5.784-.219-2.316.349-3.801.219-5.191-.425-1.129 0-5.86-.21-10.19 0-4.29.183-10.083.397-13.353.248-.485 0-1.1 0-1.875-.019v1.199c3.625.123 7.314.222 10.325.123m6.39 1.854c2.407 0 6.099.091 8.411.211 2.292.129 4.764-.211 9.791.575 0 0 .649-.864.725-1.409 0 0-2.53-.758-4.946-.416-2.403.318-3.361.494-4.603.318-1.263-.219-1.181-.465-2.74-.465-1.599 0-10.428.364-13.874.246-1.936-.075-5.755-.075-9.481 0v1.13c.496 0 .952 0 1.375.021 3.05.19 12.931-.211 15.342-.211m-5.133 2.378h15.226c4.333 0 6.929.495 6.929.495l.869-1.35c-2.217-.668-5.363-.323-7.565-.106-2.209.242-3.817.318-4.443-.438-2.29 0-9.447-.123-12.397 0-1.91.046-6.147.013-10.201.121v1.253c4.235-.001 8.554.025 11.582.025m5.035 19.185l.527-1.213s-6.434-.349-13.861.433l-2.356-.434s-.362 0-.929.076v1.52c.668-.07 1.255-.102 1.79-.174 5.341-.563 13.348-.78 14.829-.208m.731-9.015c4.95-.127 8.743.518 8.743.518.188-.302.415-.956.415-.956s-8.738-.978-11.975-.545c-3.297.475-5.685.545-6.637 0 0 0-3.181.177-6.217.341-.457 0-1.005.056-1.678.076v1.017c.613 0 1.222-.056 1.79-.056 5.34.001 10.618-.293 15.559-.395m-4.612 11.291l.091.71 1.074.074S36.13 54.221 36.689 53.66c-2.341-5.68-13.585-12.221-18.523-10.154l-.637-.053 2.117-1.869-1.378-.418-.949 2.262-.454-.072.541-1.771s-1.751 0-4.198.222c-3.505.293-9.363.625-10.38.05-.53.131-1.096.216-1.707.268v1.463c2.844-.326 5.276-.606 6.527-.635 2.055-.107 4.415.029 6.211.281m5.797 1.027c.331-.069 3.499.275 4.944 1.064 2.333 1.274 9.771 6.246 9.771 6.246s0 .193-.136.334l-.18.207-.199-.151c-.026-.056-1.771-1.254-5.03-2.83L24.6 47.134l-5.364-2.674s.103-.143.42-.199m5.335-20.572c4 0 8.419.76 8.419.76l1.035-1.399c-1.377-.418-4.949-.189-7.229-.125-2.338.125-3.553.225-4.628-.545-2.677.13-5.489.252-8.638.252-2.969 0-8.956.064-12.829.168v1.106c3.042-.041 6.418-.065 9.484-.065 4.722 0 10.413-.152 14.386-.152m-4.396 6.414c4.816.244 7.568.569 7.568.569.639-.325.824-1.305.824-1.305-1.915 0-6.399-.252-8.21-.41-1.771-.234-5.901-.095-8.519.333-2.613.369-3.242.077-3.466-.568-.956.274-3.943.139-7.671.392v1.363c2.408-.056 4.699-.105 6.319-.131 3.671-.169 8.328-.449 13.155-.243m3.572 6.793c-2.528-.565-3.151-.446-3.151-.446l2.486 1.144m-3.758.674l-.191.386 2.088.741.947-.908m-3.989 2.116l1.22.635 1.196-1.13-2.009-.361m28.797-27.61l-2.1.066 1.688.677m-.316.725l-3.785-.437 3.256 1.541m7.456 5.76s-2.504-2.752-3.882-3.1c-1.37-.343-2.667-1.297-4.075-1.965l.177-.4s-4.081-1.023-5.891-.858c0 0 3.371 1.438 5.575 2.615 2.22 1.178 5.789 3.708 7.17 5.432 0 0 .639-.77.926-1.724m.211-.738s.535-.664.535-1.792c-1.597-1.527-4.012-2.359-7.159-2.828 0 0 4.109 2.014 6.624 4.62m-1.675 3.88s-2.818-.977-4.636-1.101l4.03 2.237m-.237.466c-1.891-.691-5.147-.887-5.147-.887l3.989 2.136m-7.357-3.601h-.954l.847.288m-.308 1.101l-2.543-.262 2.22.762m-.3 1.102c-2.22-.812-4.219-.636-4.219-.636 1.172.064 3.785 1.355 3.785 1.355m7.23 1.806c-1.667-.588-4.837-1.646-6.598-1.376 2.836.625 6.312 4.435 6.312 4.435l.832-2.821h-.034l.775-1.511c-3.357-1.617-5.455-1.254-5.455-1.254 2.501.837 3.663 1.939 4.168 2.527m-1.667 5.907l1.075-1.747c-1.798-3.422-9.061-6.684-14.111-6.075 6.232 1.087 10.616 4.597 13.036 7.822m15.87-8.624c-2.288-1.211-6.39-.788-6.39-.788 1.248.098 5.985 2.036 5.985 2.036m.94-3.002c-1.986-.686-4.088-.295-4.088-.295.619 0 3.695 1.358 3.695 1.358m.601-2.587c-.6-.289-2.309 0-2.309 0l2.1.668m8.626 3.637c-.733-.225-1.889-.319-1.889-.319l1.769.962m-.172 1.078c-1.412-.62-3.9-1.305-3.9-1.305l3.458 2.393m-13.988 6.332l-1.568.503 1.166.248m-.321.797c-1.164-.215-3.264.221-3.264.221l2.602.771m-.303.727c-1.349-.334-5.053-.216-5.053-.216l4.333 1.228m-7.718.276l6.262 1.742.824-1.171c-2.418-.777-7.086-.571-7.086-.571M65.68 38.58c-.647-.093-1.686.183-1.686.183l1.281.466m-.242.948c-1.039-.148-3.514 0-3.514 0l2.796.989m-.321.691c-1.67-.273-4.931-.425-4.931-.425l4.297 1.628m7.237-.107c-.814-.211-2.074 0-2.074 0l2.001.991m6.74 23.624l6.294 3.909-.944-1.748-3.28-2.038m-1.578 2.902c2.564.636 7.282 4.172 7.282 4.172l.294-.21-.64-.548-.734-1.723c-1.871-1.598-4.804-2.138-6.202-1.691m-6.6-12.295l-1.91-.738s-2.207-.363-3.251.076c0 0 5.036 1.945 5.873 2.708m-26.352-23.28l.709-.958c-1.89-.668-4.287-.762-4.287-.762m2.5 3.313l.634-1.06c-1.06-.433-3.993-.606-3.993-.606m1.799 3.392l.918-.988c-1.988-.634-3.78-.634-3.78-.634m1.492 3.096l.932-.691c-1.487-.678-3.792-.989-3.792-.989m1.683 3.326l.746-1.074c-1.795-.626-4.106-.842-4.106-.842m-3.981-1.481s1.051.068 1.453.493l.417-.493s-1.257-.365-1.87 0m-3.146.712l3.851 1.608.461-1.063c-.001 0-3.069-1.186-4.312-.545m8.079 7.917s.538-1.785.312-3.146c0 0-4.193-2.162-5.169-2.33l.237-.31s-3.806-1.516-6.521-1.516c-.001.002 9.477 4.507 11.141 7.302" fill="#0067B1"/><path d="M37.706 49.397s-2.186-2.622-4.103-3.089c-.402-.072-1.338-1.461-1.338-1.461s-4.102-2.417-10.524-2.345c0 0 10.587 1.958 15.229 10.074-.001 0 1.055-1.868.736-3.179m-27.101 9.406l-2.748.345 1.872.806m-.611.979l-2.001-.196-.198.441 1.675.639m12.934-7.925c-.513-.235-1.284.252-1.284.252s.858.155 1.183.398c0 0 .632-.398.101-.65m-.237 1.603l-2.82.199 2.735.63m-.429 1.237c-1.969.073-4.605 0-4.605 0l4.072 1.243m15.065-3.108l.606-.988s-10.702-5.745-12.414-6.097l.159 1.503c0 .001 10.17 4.425 11.649 5.582m-4.294.073l.487-1.058-2.423.256m1.289 2.666l.193-1.044-3.016.087m1.776 2.752l.402-1.297c-.921-.205-4.101-.205-4.101-.205m9.786-1.34c-1.06-.474-3.024-.474-3.024-.474l1.771.981.702.346m-3.767.69c.729.571 2.844 1.101 2.844 1.101l.415-.932c-1.143-.735-3.981-.665-3.259-.169" fill="#0067B1"/><path d="M33.305 59.835c-2.1-1.035-3.984-.409-3.984-.409l3.462 1.38m-1.489 2.098l1.169-1.437s-.199-.389-1.449-.659c-1.291-.19-1.168-.69-2.351-1.019-1.122-.36-7.025-.778-5.888-.211 1.162.539 8.519 3.326 8.519 3.326m-.441.504s-5.1-2.602-7.892-2.671c-2.716-.12-3.22-1.589-3.22-1.589s-4.868-.532-5.791-.346c0 0 13.869 5.058 16.707 6.032l-.524-.681m-20.058 3.755c-.723-.438-3.812-.977-4.719-1.167l-.438 1.274s3.676.229 5.685 1.493c0 0 .193-1.156-.528-1.6m-8.257 7.06s.177 1.176.318 1.194c1.218.149 5.906 1.154 9.658 2.436l-.05-1.691c.001.001-10.792-2.707-9.926-1.939M9.22 63.607l.318-.414s3.165.735 5.787 1.209c2.625.433 8.096 2.399 11.364 3.842 3.232 1.407 7.96 2.441 9.038 3.305v-.957s-5.478-3.422-11.15-5.156c-5.686-1.683-11.782-4.039-15.458-3.056l-1.346 1.917c-.146-.166-.281-.39-.451-.544l.832-1.299-1.354-.32-.533 1.793 1.382.569.428.619-1.873-.619-.655 1.478 4.624 1.594s-1.227-1.795-2.317-3.166l.65-.245.288.727L35.83 72.92v-.738s-9.974-3.528-11.795-4.399c-1.764-.852-13.432-3.485-14.815-4.176m41.73 3.131c10.305 1.617 17.573 5.995 17.573 5.995l.097-2.348s-2.063-2.368-11.312-4.815c-9.241-2.506-19.602-3.566-25.486-1.963 1.781-.062 8.836 1.506 19.128 3.131m-4.908-12.516c-.652.188-2.03.636-2.03.636l1.688.166m-.184 1.088c-1.371-.099-3.292.563-3.292.563l2.762.521m-.337 1.287c-2.082-.187-5.365.747-5.365.747l4.621.605m9.246-6.281l-.727.44.84.225m-.113.977l-2.201.5 2.126.542m-.227 1.075c-2.116-.116-4.626.32-4.626.32l4.201 1.069m-1.054 2.695l.856-1.972c-4.005-.504-7.153.688-7.153.688m15.868-2.275s-.193-.205-1.351 0l1.266.46m-.345 1.491l-2.7.048 2.395.723m8.006 3.468l-2.751-1.255-5.349.42-.842-.289.842-1.504c-.842.417-5.703.604-5.703.604 2.854.377 14.111 4.632 14.111 4.632m-.537-5.359l-.811-.467-4.542.371 5.582 2.227" fill="#0067B1"/><path d="M68.52 67.37c-.631-.568-5.163-2.489-5.979-2.489-4.866 0-3.897-1.129-3.897-1.129l-2.821-.79-5.087.228.334-1.189s-.765-.534-2.943-.534c-4.542 0-4.608-1.049-4.608-1.049-1.919-.193-7.479.979-7.479.979 9.034.526 25.65 3.609 32.577 8.107 0 .001.538-1.596-.097-2.134M46.225 72.5c1.787-.216 19.238 5.271 21.242 6.23l.299-2.028s-29.53-7.53-31.936-8.794l.209.55 5.235 2.769c1.168 0 3.711.519 4.951 1.273m25.643-11.763l-3.759-1.589-3.684.28c1.915.152 8.307 3.537 8.307 3.537m-53.086 5.691s1.785 1.638 2.187 2.259c0 0 12.819 3.58 13.896 4.371l-.125-1.793c0 .001-13.67-4.651-15.958-4.837m3.231 4.838h-1.995l.136.435 2.086.198m8.101 1.157s-3.576-.166-4.427-.126l4.237 1.355m1.369.107l3.024 1.02.196-1.495-3.138.095m-8.965.38l-.399-1.259-3.689.177m11.44 2.051l-4.604-.275 8.611 2.913.548-1.494-4.205-.356m-7.986.352v-1.14l-5.145-.166m6.408 1.619l10.041 3.425.298-1.262c-4.368-2.286-10.339-2.163-10.339-2.163m-1.263.569l-6.729-.344c2.32.102 17.209 5.458 17.209 5.458l.538-1.392c-1.03-.865-6.071-2.22-8.609-2.341-2.522-.152-2.409-1.381-2.409-1.381m-.946 1.868c-1.59-.273-7.48 0-7.48 0 3.477.472 18.2 5.481 18.2 5.481l.613-1.487-7.253-2.661c-4.42.001-4.08-1.333-4.08-1.333m22.58-6.321l-.622.884h.756m-.216 1.064l-3.167.983 2.736.24m-.433 2.784l.107-1.745c-.494.507-4.73 1.472-4.73 1.472m17.334 2.581c-2.207 0-4.075-.731-4.075-.731-1.703-.446-9.249.342-9.249.342l.321-1.313-5.907 1.091s4.337.395 15.445 2.044c11.164 1.565 14.832 6.189 14.832 6.189l2.327-1.061c-2.201-3.021-11.471-6.561-13.694-6.561m-3.767-1.261l.305-2.057c-2.314-.395-7.109 1.208-7.109 1.208m7.219-3.414l-3.227 1.022 3.227.543m0-2.949l-1.036.593 1.137.129m7.298-.129l-3.082.531 2.933.852m-.306 2.351l.214-1.663-3.884.622m9.992.607l.705-1.363c-2.387-.709-5.453-.413-5.453-.413" fill="#0067B1"/><path d="M65.296 81.8l.855-.935s-3.008-1.254-5.489-.1c0 0 9.025 2.567 10.579 5.657h-.718c-1.563-1.473-6.958-4.467-9.861-4.704-4.125-1.738-6.348.311-6.348.311l2.865.845c8.633 1.416 13.635 6.893 13.635 6.893l1.919-.745c-.962-.185-.633-1.072-.633-1.072l1.458.69 1.257-.351c-.929-.144-4.078-1.518-3.044-2.036 1.046-.598 3.796 1.566 3.796 1.566l1.349-.431-4.183-1.801-1.035-1.626c-1.805-.8-5.701-1.799-5.701-1.799m-63.654-4.81l.214 1.402s7.615 1.473 8.891 2.236l.294-1.619s-2.729-.772-5.244-1.309c-2.083-.473-4.061-.641-4.155-.71m.355 2.523l.057 1.333s6.262 1.282 8.357 2.124l.436-1.614c-.001.001-9.474-2.453-8.85-1.843m.096 2.154l-.136 1.784s5.688 1.385 7.888 2.065l.263-1.94c0 .001-6.729-1.868-8.015-1.909m10.522 1.392l16.008 5.015 3.142-.387c-12.725-5.177-19.15-4.628-19.15-4.628m55.93-19.557s3.884 2.003 4.534 2.666l-.814-2.602s-3.482-2.327-4.446-2.53m1.79 6.293l4.329 3.145s-.139-2.481-.645-3.366c-.529-.834-4.511-2.779-4.511-2.779" fill="#0067B1"/><path d="M78.625 85.474l-2.53-1.512h-4.396c4.618.893 6.181 3.002 6.181 3.002l1.458-.455-1.271-.853m-2.826-6.734h-2.426v.446l3.781 1.943.14.545c-.646-.375-1.066-.545-1.066-.545l-3.66.545c4.089.957 8.168 4.2 8.168 4.2l1.25-.294c-1.151-.229-3.361-1.575-3.361-1.575l-.31-1.028c.634 0 4.333 2.203 4.333 2.203l1.553-.505c-1.478-.356-4.357-1.698-6.214-2.635l-.059-.911c3.548.267 7.55 2.976 7.55 2.976l1.574-.47c-2.21-1.127-9.898-4.106-9.898-4.106m-1.957-8.355s-2.943-2.292-4.042-2.826l.746 2.506s2.439 1.467 3.154 3.729l-.612.126s-1.704-2.71-2.189-3.027l.401 2.628s1.597.626 1.985 1.489L72.3 75.54l.515 1.46 2.105 1.169s1.284.208 1.495 1.007c0 0 5.453.699 11.245 4.03l1.132-.333s-4.511-3.063-13.848-5.285c0-1.356 0-4.762-.305-6.232m-51.19-46.29c-.405 0-.702 0-.984-.026-.174.301-.328.644-.48.882.33 0 .668.08.954.08.17-.317.34-.635.51-.936m-1.921.856c.152-.364.342-.711.53-1.035-.139-.062-.274-.158-.318-.366-1.834-.07-6.416.225-8.424.519-1.996.352-2.826.24-2.826.24l.306-.609c-1.899-.128-4.963-.149-9.674 0v1.251c4.391-.023 9.103-.163 10.939-.188 2.014-.052 6.048.068 9.467.188" fill="#0067B1"/><path d="M29.606 27.843c2.598.642 13.099 5.781 17.025 7.741l.324-.739c-3.663-5.885-12.163-7.742-15.536-8.277l-.112.164a.445.445 0 00-.169-.164h.281l1.365-1.354c-1.365-.341-3.462-.341-6.243-.243-.968.023-1.834.07-2.573.096-.146.301-.364.618-.545.969 1.156.047 2.149.058 2.826.157 1.04.037 1.996.072 2.793.151l.104.492c-.902 0-1.858.131-4.156.268-2.932.229-4.213-.416-6.389-.536-2.251-.103-4.651.693-7.279.851-.255.033-.438.033-.639.033-.052.1-.109.289-.163.391 4.068 0 8.639.165 11.308.248 3.255.103 7.37.634 7.37.634.157-.289.278-.618.408-.882m14.539 4.817c.504 0 .504.545.504.545-.139 0-.378-.05-.66-.168zm-10.542-4.657c1.708.408 6.864 2.343 9.162 3.943l-.159.513c-2.46-1.099-6.347-3.12-8.038-3.734-.391-.11-.738-.313-1.078-.464zm-24.586-.131c.065-.321.266-.565.357-.833-.092-.234.068-.471.068-.471-1.558 0-5.182.167-8.32.337v1.205c2.844-.102 5.281-.168 6.736-.237m1.552-.03c.334 0 .412-.054.804-.054.028-.163.097-.293.113-.392-.523-.023-.518-.023-.676-.169a1.985 1.985 0 00-.241.615m26.105 42.069c.4.558-.529-2.851-.529-2.851.529.508 5.481 1.4 5.481 1.4l-2.949-2.047.097-.367 2.252 1.395 1.839 1.401c1.271.594 26.277 7.299 26.277 7.299v-.417l-11.602-3.54.331-.405c1.923-.12 11.502 3.189 11.502 3.189l.125-.988-.292.249-.081.095-.134-.026c-.101-.045-10.07-3.285-12.272-4.102l-.183-.021.06-.198.123-.325.065-.216.193.026c.415.173 10.485 3.638 12.494 4.186l.084.046.021-.201c-2.526-2.46-7.323-3.582-11.934-4.987-3.916-1.204-6.723-1.523-8.685-1.869-12.679-2.142-17.144-1.803-17.144-1.803l.199.602c-.607.217-9.512-2.949-12.385-4.037-4.425-1.721-8.768-.324-7.458-.324 4.518 0 22.019 5.929 24.505 8.836M48.4 68.017l.251-.109 1.45.152h.092l.034.023c.699.346 3.598.938 3.616.938l.16.043.021.11v.461l.013.093-.167.074c-.338.082-5.562-1.375-4.928-1.175l-.052-.023-.04-.075-.496-.101zm.04 1.787l.605-.167.089-.128.052.023 3.053.665.146.098.021.122.196.422.052.254-.268-.059c-.546-.102-2.991-.648-3.985-.94l-.177-.181zm-2.909-3.064c.344.168 2.136 1.276 2.136 1.276l.047.228-2.177-1.239-.314-.265zm-3.462-.4l.245.074.104-.031.071.077 3.53 2.383.206.222.498.739-4.704-3.151-.324-.193zM3.465 36.592c.168-.338.31-.639.443-.909-.071-.043-.102-.095-.178-.245-.525.058-1.433.099-2.609.179v1.152c.611-.046 1.176-.076 1.573-.13.272 0 .512-.047.771-.047m-.428 1.256c-.097-.176-.026-.345-.026-.345-.374.072-1.065.149-1.89.219v1.504c.566-.083 1.174-.132 1.723-.222.068-.427.122-.787.193-1.156m1.811-3.393c1.012-.908 1.888-.722 1.92-.722l.028.056c.047 0 .078.078.078.121 0 .037-.031.037-.078.037-.028 0-.595.018-1.388.533.428-.024.793-.024 1.183-.097 3.378-.201 5.58-.277 9.668-.277 3.542 0 3.799.449 3.799.545l.107-.74c2.106 0 4.711 2.089 4.711 2.089l.652-1.05-.538-.566 1.166-.201.532-.98s-2.525.124-4.758-.196c-2.189-.351-4.907 0-8.803.196-3.908.247-4.208-.08-4.208-.08-1.383.08-4.475.299-7.798.4v1.227c1.148-.098 2.247-.141 3.405-.219m-1.325 4.477c.326-.025.326-.128.605-.154.023-.245.092-.446.183-.637-.462 0-.438-.107-.605-.168-.079.291-.115.609-.183.959m1.884-3.006c-.541 0-.524 0-.804-.145-.117.219-.279.42-.385.724.409 0 .409-.11.85-.11a4.24 4.24 0 01.339-.469m.124 2.148c-.333.067-.636.067-.865.067a1.973 1.973 0 00-.183.637 44.09 44.09 0 015.059-.367c3.908-.118 9.253.393 9.253.393l.628-1.503c-2.313-.101-11.244.422-13.892.773" fill="#0067B1"/><path d="M19.413 36.637l.409-1.597c-1.656-.091-8.275.214-10.386.398-1.183.146-2.596.5-3.78.565a1.702 1.702 0 00-.298.447c3.434-.228 7.318-.228 9.666-.228 2.926.001 4.389.415 4.389.415m-15.109 66.11c2.542.067 5.156.372 7.668.657 1.322.125 2.572.318 3.801.423 4.025.341 6.642.392 8.803.125.475-.101.949-.168 1.346-.168-1.221-.255-2.687-.323-4.203-.495-1.124-.074-2.353-.224-3.454-.347a75.317 75.317 0 00-5.815-.415l-1.833-.023c-1.088-.033-1.952-.147-2.734-.25-1.229-.173-2.39-.364-4.279-.247-.864.028-1.701.028-2.484.028v.556c.67.126 1.375.126 2.236.155M6.202 8.815c3.336-.095 13.705 0 17.219-.095 1.901-.086 4.137-.025 6.211 0a5.92 5.92 0 01.658-.987c-.18-.096-.371-.275-.446-.441-2.628.215-20.115.395-27.253.215H1.122v1.234c1.889.051 3.796.099 5.08.074m7.748 2.108h11.672c3.261 0 6.843-.065 9.981-.065 3.185 0 5.267.203 5.267.203l1.175-1.705c-1.305.204-8.537.642-10.444.847-.245.009-.512.009-.75.009 0 .131-.062.235-.085.294a.357.357 0 01-.11.085.1.1 0 01-.148.019c-.058-.019-.128-.05-.133-.086a.215.215 0 01-.007-.136c.007-.045.013-.176.06-.243-.342-.021-.604-.103-.903-.176a1.758 1.758 0 00-.109.419c-.034.078-.061.118-.107.136h-.183c-.045 0-.112-.059-.112-.077-.028-.06-.044-.104-.028-.235.057-.139.096-.243.162-.382-.428-.18-.687-.346-.687-.346-.918 0-8.084.346-11.734.346-3.723 0-10.866-.027-15.184-.27h-.42v1.364c3.062.136 8.849-.001 12.827-.001m16.903-4.244h.371c.529-.521.903-.711.903-.711.078-.079.19-.079.273 0h.026v.076h.023c.038.062.014.186-.065.288-.06 0-.248.094-.5.347h.714c.704-.617 1.255-.711 1.362-.79h-.895c-1.463-.1-1.646-.808-2.614-.708-.955.119-13.397.05-17.326.119-1.69.025-6.704.056-12.003.069v1.284c6.06-.073 12.003-.129 14.206-.129 5.13 0 12.918.155 15.525.155m12.327.392c-1.373 0-6.632.783-8.735.911-.902.016-1.776.068-2.501.045-.186.225-.297.443-.454.739 1.065 0 2.053 0 2.859-.048 2.739-.083 7.991 0 7.991 0m-12.207.021c.29 0 .585 0 .887.027.107-.316.24-.565.399-.77a2.797 2.797 0 01-.732-.112c-.178.225-.338.51-.554.855M12.705 55.023l.608-1.544c-1.671-.219-9.326 0-12.191.515v.717c1.469-.125 3.162-.222 4.946-.301 4.422-.111 6.637.613 6.637.613m-1.69 3.035l1.341-2.49c-5.126-.71-8.626-.073-8.626-.073-.902.351-1.797.617-2.609.808v.893c2.766-.102 5.265-.102 5.265-.102-.318-1.813 4.629.964 4.629.964M60.422 2.406c.302-.57.689-.99.903-1.285h-.848c-.102.153-.606.663-.981 1.285m-22.731.015c.141-.369.331-.879.446-1.106.06-.07.067-.088.115-.196h-.898c-.067.152-.158.27-.169.369-.097.15-.303.641-.391.933m-26.515.098c5.438 0 17.864-.116 20.063-.116.959 0 3.355 0 5.992.018.135-.42.318-.876.459-1.108.023-.068.042-.083.078-.193H1.122v1.4m9.053 88.154l3.715 1.271s.875-.431 1.32-.529c.443-.222 1.963-.641 1.963-.641s-2.034-.854-3.352-1.127c-1.563-.285-3.131-.529-3.131-.529m-1.013 3.576l1.011.507 2.08-1.048-2.69-.961m.108 2.375l-.668-.26-.557 1.595 3.447 1.129-.094-.762-2.455-.931M99.225 1.122h-37.24c-.297.398-.749.982-.957 1.285 5.632 0 30.167-.104 38.197-.104m0 .884c-3.715.101-7.927.219-9.697.273-3.16.114-8.956.114-10.374 0-1.398-.108-4.654-.575-6.091-.345-1.496.237-3.071.459-3.712.145-.608-.375-.731-.249-1.458-.145-.718.145-4.213.459-6.817.536-.144.042-.269.042-.405.042a4.534 4.534 0 00-.17.842h.663c5.557-.195 25.033-.122 28.166-.122 2.014 0 6.317-.074 9.896-.127" fill="#0067B1"/><path d="M99.225 57.519c-2.101-.794-3.871-1.407-4.928-1.572-4.214-.936-10.827-2.313-13.726-3.745l-.686-1.475c3.036 2.163 6.902 2.056 13.667 3.919a77.062 77.062 0 015.672 1.808v-1.431c-2.333-.724-4.404-1.272-5.889-1.544-4.21-.905-8.212-1.741-11.148-2.682-1.74-.596-2.557-1.126-2.997-1.512l-.481-.951c5.481 2.841 9.458 2.223 17.683 4.688a47.32 47.32 0 012.832.957v-1.428c-4.985-1.552-9.418-2.329-12.735-2.857-6.088-1.01-7.865-2.161-9.102-3.364l.01-.218c.715-.348 1.407.168 2.703.688 2.972 1.403 12.62 2.995 18.056 4.376.345.194.75.246 1.068.36v-1.472c-2.782-.779-5.771-1.549-8.936-1.967-7.959-1.106-9.058-1.604-11.255-2.556-.603-.251-1.078-.694-1.39-.887l.227-.66c.48.396 1.079.715 1.706.853 2.077.694 9.46 2.224 13.225 2.738 1.542.216 3.757.719 6.423 1.47v-1.523c-1.5-.398-3.019-.757-4.417-.936-5.379-.763-13.664-1.229-16.896-3.169l1.326-.475c2.105.475 7.688 1.701 11.573 2.3 3.308.406 5.559.511 8.414 1.271v-1.271c-2.993-.716-6.047-1.039-7.684-1.234-2.212-.191-8.739-.958-10.31-1.378-1.552-.436-.632-.781-2.521-1.204-1.766-.343-2.22-.711-3.41-1.69 0-.026.016-.071.042-.071 4.69 1.941 13.728 3.216 21.889 4.266.707.077 1.349.2 1.994.317v-1.573c-2.549-.513-5.249-.826-8.414-1.098-8.288-.788-12.87-1.77-15.066-3.317.073-.196.12-.377.16-.596 3.357 1.891 11.054 2.749 18.778 3.489 1.664.176 3.129.325 4.542.563v-1.568c-4.719-.912-8.748-.93-12.521-1.149-6.888-.428-9.082-.935-10.482-2.679.097-.306.141-.6.201-.834 1.928 1.78 8.701 2.555 12.905 2.653 3.398.121 6.698.461 9.896 1.176v-1.351c-3.409-.561-6.94-.742-10.74-.911-8.668-.295-10.614-1.41-11.806-2.778.008-.146.075-.316.089-.419 2.656 1.629 9.575 2.158 14.477 2.359 2.995.105 5.629.366 7.98.732v-1.461c-3.068-.402-6.076-.504-8.936-.547-6.966-.051-11.38-.684-13.35-2.017.071-.42.131-.813.175-1.13 3.715 1.744 8.122 1.933 16.969 2.484 1.944.096 3.613.249 5.142.412v-1.443c-4.046-.534-7.595-.596-9.697-.596-4.195 0-9.632-.201-12.314-1.699.05-.374.05-.614.05-.934 1.087.398 4.852 1.5 11.773 1.677 4.049.116 7.47.417 10.188.746v-1.392c-3.05-.256-6.608-.579-9.697-.606-5.785-.104-10.039-.348-12.291-1.336 0-.314.026-.678.081-.975 3.282 1.196 6.4 1.081 14.765 1.359 2.587.046 5.042.311 7.143.577v-1.298a93.781 93.781 0 00-8.51-.464c-8.121-.206-12.236-.305-12.933-1.267.449-.062 1.57-.211 3.965-.043 3.287.257 8.967 0 15.046.415.889.033 1.665.13 2.432.208v-1.234c-4.804-.39-11.438-.026-15.265-.127-3.9-.072-6.642-.58-9.256-.734-.498-.265-1.009-.559-1.435-.757 1.746 0 14.087.198 18.143.44a223.4 223.4 0 017.813.348v-1.237c-5.889-.232-16.32-.232-19.241-.232-3.566 0-3.249-.625-3.249-.625-1.53.272-4.721.272-5.647.25-.327-.25-.66-.495-.989-.719 1.531-.047 6.402-.215 13.154-.071 5.517.173 11.619.295 15.972.44v-1.098c-5.268-.113-14.018-.177-17.571-.177-4.524 0-3.981-.668-3.981-.668a57.917 57.917 0 01-9.836.469c-.418-.147-.827-.369-1.257-.613l.07-.225c2.115-.089 8.223-.17 10.804-.243 3.146-.101 11.484.243 14.925.423 1.832.114 4.376.114 6.846.138v-1.306c-1.931-.014-4.772-.273-8.079-.273-2.109 0-8.122.203-10.34.203-2.181 0-2.601-.603-2.601-.603-1.352-.08-3.827.34-6.437.673-1.341.152-3.149.087-4.918-.07l.168-1.06c1.035 0 2.048.029 2.872.029 3.172 0 10.916-.395 15.442-.195 3.561.166 9.612.283 13.893.34v-1.151c-1.529-.146-2.615-.245-4.745-.245-3.068 0-9.558.222-13.335.222-3.775 0-3.775-.569-3.775-.569-.952-.099-4.401.273-8.408.569-.561.022-1.125.075-1.764.075l.221-1.23c3.16-.074 6.484-.175 8.052-.15 3.039.13 16.908.393 21.035.393h2.719v-1.25H83.767c-6.094 0-7.031-.441-7.881-.537-.838-.126-6.843.69-10.61.835h-5.481c-1.21 0-2.643-.74-3.256-1.09l.102-.163h5.787c2.94 0 8.528-.478 11.461-.301 2.966.082 14.911.191 18.915.191 2.377-.025 4.492 0 6.423.028v-1.048c-4.542-.056-10.678.016-14.941.016-5.896 0-6.83-.098-8.291-.214-1.493-.103-7.031.214-9.995.487-2.614.165-7.459-.273-8.591-.345l.047-.176-1.946-.879c1.669.072 6.029.263 7.537.191 3.893-.239 11.456-.634 14.219-.436 2.72.197 14.505.436 18.804.436.923 0 2.006.023 3.157.023v-1.362c-2.782 0-5.725 0-8.621.061-4.027.067-10.203.348-11.57-.061-1.362-.51-2.019.052-3.042.052-1.072 0-8.223-.234-12.948.076-2.99.219-9.021-.31-10.415-.478l-.84-.618s8.87.329 10.425.179c4.636-.302 9.353-.572 13.133-.441 3.804.14 18.096.321 22.094.321h1.783v-1.33c-.999 0-1.931 0-2.619.041-4.227.122-9.765.326-13.804.25-3.997-.128-3.859-.589-3.859-.589-1.489-.173-9.981.339-16.517.589-1.68.055-10.308-.291-12.379-.366l.193-.825c2.937.101 7.97.178 9.35.178 4.508 0 10.72-.362 14.401-.362 3.681 0 7.352 0 10.705.285 3.193.176 10.046.077 14.529 0V7.168c-2.47 0-5.223 0-7.457.124-3.811.214-10.624.214-11.667 0C79.035 7.073 78.711 7 78.205 7c-.532 0-3.068.073-5.599.194-2.507.098-11.667.313-15.99.313-.793 0-3.522-.066-6.162-.214l.201-.808c4.229.04 9.604.04 11.331.04 3.584 0 12.215-.294 15.384-.166 3.123.068 16.405.068 20.167.068.402 0 .961 0 1.689-.025V5.231c-1.045.011-1.69.069-1.69.069-3.357 0-14.734.326-16.618.326-1.883 0-2.293-.253-2.613-.44-.348-.263-2.54-.105-5.242.114-2.753.146-3.582 0-4.324-.114-.756-.105-4.424.188-9.056.44-1.57.064-3.579-.253-5.552-.253-.823 0-2.014.056-3.294.072l.235-.908c2.104 0 4.818.068 7.138.068h.459c.457 0 .879 0 1.307-.068.036-.196.073-.562.135-.885-.457-.025-.827-.025-1.158-.104l-.475-.085c-.509-.107-.879-.2-1.213-.2-.525 0-3.209.028-5.925.069l.188-.911c2.653-.015 5.444-.015 7.455-.015.473-.792.932-1.177.932-1.231.037 0 .061 0 .097-.054H37.816c-.092.155-.162.271-.193.367-.091.152-.297.644-.407.933 2.883.098 5.742.098 7.122.098 1.281 0 3.929 0 6.799-.098l-.258.911c-.918.023-1.834.023-2.656.023-3.454 0-11.054.454-14.068.454-3.068 0-3.068-.546-3.068-.546H19.744c-1.926 0-10.462.028-18.623.028v1.338h2.612c5.384 0 17.282-.214 20.107-.214 2.852 0 8.424.214 11.763.214 3.378 0 11.471-.091 14.62-.091h.316l-.3.984c-1.642.104-3.329.168-4.198.168-1.704 0-1.602-.317-2.638-.317-.913 0-6.712.492-9.324.516 0 0 .054.085.075.085.042.019.079.07.079.091.031.096 0 .152-.024.165-.032.036-.076.105-.156.128h.026c-.026 0-.284.043-.673.297 3.864-.073 10.123-.229 12.202-.229.793 0 2.458 0 4.396.059l-.242.808c-2.729-.098-5.213-.219-5.213-.219l12.385 6.84-.263.318c-.691-.251-2.489-.919-4.248-.919l3.551 2.115-.123.348c-.302-.124-.482-.193-.482-.193s-2.004-1.063-4.952-1.239c0 0 3.585 1.92 4.417 2.781l.238-.686 9.243 4.691c2.027.74 9.885 5.063 11.352 5.672.751.302.994.694 1.068 1.202l-1.264-.377 1.15 1.796-.025.077c0 .16-.023.513-.082.752l-1.275-1.137H74.5l1.892 2.338v.074l-.824-.469-2.836-.606s2.395 2.133 3.405 3.566c-.039.271-.063.591-.12.977-.384-.536-1.226-1.767-1.722-2.083-.6-.452-2.11-1.091-2.285-1.611-.24-.498-.521-1.489-1.412-1.8-.814-.385-5.027-1.873-7.313-2.396 3.923 1.854 10.32 4.998 12.22 10.227-.126.085-.162.248-.294.345-1.371-2.921-3.77-5.774-8.036-7.865-2.327-.696-3.814-1.325-4.748-2.018-.908-.789-2.004-1.6-9.455-1.757 4.704.874 17.339 4.848 20.916 12.844-.277.215-.54.215-.804.202-1.516-4.527-9.348-10.888-21.904-12.173l-1.377 1.504 22.299 10.913 2.82 1.162a10.538 10.538 0 011.933 1.372h-1.187s.824 1.032 1.956 1.968l-.224.363c-.777-.655-.884-.687-.884-.687l-2.432-.076c.642.831 2.596 2.317 3.047 2.684l-.07.413-2.244-1.738c-1.122-.227-3.047-.227-3.047-.227 1.049.341 3.437 2.432 4.91 3.775l-.165.734a29.712 29.712 0 01-.947-1.088c-.843-.91-2.836-1.67-5.358-2.439l.101-.982c-1.267-.541-4.847-.541-4.847-.541 4.32 1.571 8.619 4.791 9.584 5.555.331.301.749.737 1.161.985l-.073.522a88.498 88.498 0 00-4.895-3.423c-3.258-2.116-4.067-2.068-5.672-2.335-1.576-.317-2.525-.536-2.285-1.614-2.209-.281-8.114-1.209-8.114-1.209 8.623 2.506 16.131 6.31 19.468 9.978.472.49.74 1.032.929 1.275l-.086.472c-4.24-5.338-12.575-8.634-16.943-9.833-2.528 0-4.407-.449-5.771-.963l.204-.787c-2.431-.781-7.983-.834-10.83-.316 24.509 5.087 28.946 9.684 32.583 15.388v.125c-.446-.077-.733-.077-.733-.077-3.893-8.476-21.874-12.509-26.828-13.571-4.938-1.13-5.354-.931-6.42-.564l3.404 2.46-.449.15-4.298-2.81-4.329-.929-.422.454 3.496 2.052-.12-.615 35.757 14.534c.134.063.3.086.423.106l-.214.397-1.691-.625.232.778c1.459.097 2.388.979 2.388.979a23.432 23.432 0 00-2.189-.723l1.26 2.3c2.426.828 5.043 3.113 5.043 3.113l-1.975-.949-1.923-.437 1.459 1.913c2.439.637 5.917 3.66 5.917 3.66l-.645-1.299-2.189-1.724.083-.367 1.469.694-.087-.87c-.97-1.18-5.673-4.05-5.673-4.05l.196-.42c1.703.067 5.564 3.435 5.564 3.435l-.087-1.287s-2.11-1.411-3.265-2.271c-1.144-.857-2.212-1.323-2.212-1.323l.15-.317c2.758 1.08 5.208 2.572 5.208 2.572l-.107-1.132c-.816-.658-4.322-2.709-5.251-3.02-.217-.077-.457-.179-.619-.179l.225-1.203c1.091.298 5.45 3.161 5.45 3.161a3.03 3.03 0 00-.548-1.351s-3.044-1.899-3.968-2.539c-.363-.278-.54-.523-.624-.748l.097-.534c.893.534 4.495 2.778 4.495 2.778l-.412-1.43c-.611-.314-1.883-1.043-2.703-1.714a3.99 3.99 0 01-1.067-1.135l.08-.38c.781-.112 3.504 2.074 3.504 2.074l-.771-2.074c-1.049-.061-1.257-.375-1.887-1.046-.135-.118-.323-.272-.555-.522l.127-.488c.58.353 1.25.738 2.134 1.181l-.553-1.796c-.548-.237-.958-.495-1.305-.826l.151-.788c.629.613 1.039.979 1.039.979l-.693-2.485.106-.542c.413 1.263.854 1.964 1.169 2.359l1.863 4.355c.624.315 1.686.833 4.088 1.378 2.437.481 7.353 1.471 11.476 2.901.908.27 2.021.69 3.259 1.206M58.113 16.954c-.393-.244-.816-.441-1.21-.714.837.339 2.107.66 3.417.714 1.088.059 3.783-.023 6.69-.147l-.342 1.207c-2.784.021-5.862-.198-7.211-.272-.529-.321-1.004-.617-1.344-.788m8.071 2.95c-1.302-.168-2.597-.319-3.606-.449-.498-.237-1.033-.517-1.565-.781.507.037 2.972.098 5.43.176zm-2.19 12.435c.939.201 4.858 2.503 4.858 2.503l-.744.198-4.225-2.26zm-10.198-3.854s1.375.24 2.627 1.542c-1.054-.528-2.627-1.542-2.627-1.542m8.742 4.843s-4.539-2.161-5.155-2.367l.07-.436s3.486 1.179 5.176 2.386zm0-1.089l-5.272-2.137v-.537l5.473 2.253zm7.454 4.749l-6.53-3.078.217-.462s4.304 1.702 6.631 3.272zm-21.98 9.96l-1.905-1.865c1.284.24 2.244 1.616 2.244 1.616zm1.151-1.359c.561-.507 2.423 1.807 2.337 2.314-.321-.638-2.337-2.314-2.337-2.314m7.772 4.633l-3.858-1.255.075-.469c1.594 0 4.115 1.119 4.115 1.119zm1.817-1.255l-5.387-1.31-.102-.523c2.559-.186 5.69 1.28 5.69 1.28zm9.463 5.891c-1.365-.211-8.721-3.682-8.721-3.682l.3-.471c2.191.665 8.625 3.707 8.625 3.707zm.942-.316c-2.625-2.634-9.145-4.925-9.145-4.925l.196-.749c6.209 1.69 9.682 5.674 9.682 5.674z" fill="#0067B1"/><path d="M99.225 60.074c-2.546-1.153-4.107-2.04-7.143-2.631-3.687-.767-7.699-1.496-8.827-2.091-1.168-.494-1.508-1.459-2.656-1.691l.632 1.691c1.795.596 2.024.975 3.056 1.237 1.045.168 6.524 1.247 10.013 2.56 1.164.429 2.88 1.172 4.925 2.049m0 .886c-1.326-.617-2.719-1.184-4.193-1.524-4.61-1.33-7.164-1.735-9.293-2.502-3.451-1.298-3.227-1.945-4.085-2.044l.634 1.623c1.672.85 3.17 1.375 5.376 1.945 2.208.536 5.672 1.351 8.203 2.342.745.261 1.909.742 3.357 1.439m.001 1.082c-.115-.04-.188-.118-.311-.147-3.934-1.477-6.413-2.375-9.586-3.021-3.132-.66-4.632-1.921-6.712-2.909l.723 1.856c4.326 1.374 7.681 2.334 11.344 3.529 1.385.4 2.946 1.13 4.542 1.971m0 1.158c-2.234-1.106-4.985-2.011-6.178-2.266-1.635-.318-4.761-1.208-6.118-2.055-1.383-.815-1.891-1.285-3.162-1.483l.521 1.587c.635 0 1.452.398 2.642.941 1.146.547 6.408 2.169 8.939 2.924 1 .271 2.155.869 3.357 1.529m-.001 1.273c-2.087-1.088-3.974-1.638-6.559-2.324-4.899-1.28-7.12-3.596-8.176-3.596l.723 1.704c1.189.24 3.073 1.52 3.073 1.52 2.734.581 6.909 2.106 10.939 4.129m0 1.099c-2.855-1.747-5.562-2.72-8.617-3.62-1.081-.333-1.67-.333-2.534-1.313-.828-.957-2.108-.957-2.419-.629l.413 1.267 3.162 1.604c2.34.203 5.996 1.666 9.995 3.833m0 1.62c-2.244-1.452-4.046-2.528-8.325-4.033-2.102-.761-2.614-1.599-2.614-1.599h-1.792l.347 1.391s2.488.844 5.001 1.557c.975.304 3.917 1.92 7.383 4.04m-11.699-1.684s5.782 2.322 11.694 6.211v-1.087c-.963-.666-1.814-1.21-2.618-1.522-2.181-.92-4.672-2.539-4.763-3.375 2.238.986 4.913 2.266 7.38 3.713v-.965c-2.618-1.714-6.424-4.079-10.286-5.917l-1.911.392.331.887s.674.263 1.809.687l-1.637.372m-4.141 43.405c1.683.66 3.475 1.231 5.306 1.797h10.53v-.138c-2.714-.647-5.907-1.357-7.357-1.758-11.545-3.289-20.731-4.808-26.502-4.431-5.774.4-9.432-.04-9.432-.04l-.259-.439c3.52.765 7.916.136 9.442.103 7.493-.35 13.968 1.279 13.968 1.279l-.279-.433s4.581 1.402 6.583 1.976c4.324 1.233 9.952 2.387 13.834 3.247v-2.633c-1.714-.32-4.984-.842-8.688-1.331 3.948.144 7.057.572 8.688.903v-1.638c-4.081-.625-10.673-1.204-18.519-.941 7.812-.636 14.414-.069 18.519.504v-2.146h-.206c-.104 0-.217-.148-.217-.214 0-.11.13-.207.26-.207l.163.076v-1.55c-1.452-.15-2.403-.243-2.403-.243-.088 0-.131-.102-.141-.129-.027-.018-.066-.065-.066-.114.039-.105.1-.176.256-.176 0 0 .916.071 2.354.254v-1.483c-.459-.023-.823-.023-1.042-.023l-1.701-.195-2.242-.147c-1.33.124-2.875.388-4.226.594-1.876.293-7.225.78-11.806.091-3.687-.537-7.527-.091-10.981.229l-2.226.289c-.117 0-.208-.099-.208-.289-.049-.08.058-.158.141-.158l2.251-.194c3.473-.415 7.381-.783 11.049-.219 4.568.643 9.841.176 11.74-.094.562-.15 1.3-.249 2.045-.395-1.916-.074-3.247-.074-4.131 0-2.206.19-9.105.245-11.817-1.184l.082-.152c2.001.668 5.505.641 8.917.585l1.957-.021c3.963 0 7.07 0 11.265.496.264 0 .613.08.932.107v-.987c-2.535-.181-5.127-.504-6.663-.662h-.055c-2.792-.324-8.88-.179-11.756 0l-1.626.12c-1.635.07-3.033.178-4.1 0-1.415-.227-2.904-.35-6.166-.12-.039 0-.089-.032-.162-.032a.564.564 0 01-.034-.198c0-.021 0-.063.021-.094.063-.023.091-.047.17-.078 3.267-.186 4.761-.122 6.256.128.989.166 2.379.043 4.015-.051l1.599-.078c2.88-.122 9.051-.291 11.812.031h.073c1.513.12 4.093.416 6.616.668v-1.042c-1.452-.1-2.61-.166-3.358-.332-3.228-.55-7.317-.645-8.927-.645l-.011-.166c3.608-.579 6.736-.031 8.454.237.56.076 2.019.17 3.842.188v-1.005c-1.065 0-2.051-.025-2.936-.094-4.683-.416-6.144-.178-8.171.094l-1.079.107c-.877.072-1.821.289-2.68.441-1.74.291-3.407.536-4.907.438h-.094v-.567h.128c1.57 0 3.485-.312 5.358-.582 1.565-.227 3.027-.518 4.12-.532h.647c2.259-.189 5.075-.304 6.908.073.385.113 1.366.085 2.708 0v-1.25a90.37 90.37 0 01-3.463-.066c-5.299-.174-19.19 1.717-19.334 1.744l-.094.033v-.532h.088c4.652-.88 15.278-1.877 19.767-1.953 1.242-.031 2.212-.031 3.035-.031v-.874c-5.367.316-12.818.63-17.321 1.172-5.69.686-7.693 1.496-10.813.981l.709-.474-.952-1.05s.15-.179.357-.465l1.727 1.624 1.065-.27a5.611 5.611 0 01-2.254-2.42c.086-.14.157-.289.271-.505 1.367.904 3.264 2.701 3.264 2.701l.937-.123-3.874-3.473c.13-.283.225-.636.315-.993 2.114.892 5.463 4.254 5.463 4.254l.903-.129c-.512-.666-3.906-3.346-6.194-5.096.091-.467.104-.959.05-1.381 3.029 1.972 8.393 6.172 8.393 6.172l.936-.1c-.972-.637-7.437-5.725-9.47-7.35.25-.088.538-.254.801-.361 3.319 1.501 10.658 7.4 10.658 7.4h.845c-1.023-.829-7.448-5.899-10.27-7.918.372-.173.8-.372 1.228-.54 3.767 1.942 11.031 8.312 11.031 8.312l1.049-.102c-1.378-1.275-8.323-6.693-11.221-8.632.464-.188.902-.434 1.38-.637 4.278 1.969 12.188 9.189 12.188 9.189l1.238-.071c-.846-1.231-9.372-7.348-12.751-9.447.444-.163.908-.406 1.341-.625.749.357 1.621.866 2.615 1.512l.136.667.15-.507c4.427 2.995 10.056 8.229 10.056 8.229l2.021-.099c-2.079-1.64-8.372-6.292-11.842-8.904l.381-1.176c1.549.903 3.689 2.29 5.192 3.572 2.613 2.233 6.8 4.96 7.435 6.479l1.583-.071c-1.181-.862-2.945-3.855-5.175-4.936-1.813-.907-6.238-4.239-8.801-5.872l.266-.876c.139-.087.268-.163.372-.183 4.798 1.959 13.519 10.444 14.584 11.55V96.53c-.903-1.063-1.663-2.417-3.763-4.013-2.854-2.169-8.451-5.894-9.802-6.761.345-.172.788-.398 1.268-.556 1.738 1.193 6.327 4.376 9.974 7.563.908.734 1.683 1.395 2.323 1.923v-2.169c-2.852-2.457-7.75-6.19-11.054-7.812.269-.173.559-.24.84-.395 2.83 1.204 6.83 4.221 10.214 7.12v-2.04c-3.463-2.449-7.384-4.811-8.771-5.624a12.47 12.47 0 011.247-.561c1.964.801 4.747 2.746 7.524 4.969v-1.282c-2.795-1.923-5.31-3.519-6.346-4.112.33-.222.721-.362 1.044-.434 1.062.608 3.006 1.838 5.301 3.491v-1.875c-1.323-.933-2.571-1.743-3.616-2.279.602-.281 1.045-.417 1.213-.477.381.252.745.543 1.158.823.41.316.808.658 1.246.924v-1.474c-4.044-2.646-8.605-5.087-13.128-6.24l-.298.483-2.008-1.522s-3.686-.417-4.634-.636c0 0 5.038 3.118 6.642 3.751l-.115.428-1.385-.636s-2.606.098-3.789 0c0 0 2.297.208 3.15 2.159 0 0 4.111 1.452 6.426 3.081l1.179-.42s-4.419-2.129-4.419-2.661c0-.534-.139-.633-.139-.633s3.47 1.234 5.912 2.758l1.563-.553s-7.27-2.748-8.21-4.6c1.281.155 4.894 1.021 9.901 4.27L68.659 91.316l-.232.705c-8.635-6.738-12.867-5.864-19.027-7.143-5.575-1.112-8.08-.939-8.08-.939l-5.594 1.591s13.673.227 19.267 1.974c5.528 1.677 9.337 4.058 9.987 5.087l3.439-.495-.104.319 2.022.122c-.778.156-1.735.332-3.068.526-4.29.612-10.556 1.748-18.506 2.797-7.252 1.035-14.197 2.085-24.062 2.335.005-.061.032-.493.079-1.084.023-.339.096-.77.167-1.202l3.214 1.128 2.348-.265c-.26 0-.611-.024-1.069-.112h.299l.337-1.488 3.342 1.6 1.704-.145-4.911-2.208.337-1.599 6.645 3.441 2.291-.183-.697-.384c.06-.182.193-.631.407-1.154.764.461 1.349.804 1.686 1.154l2.22-.069s-.684-.377-1.779-.967c.091-.152.19-.428.323-.775l1.648.863-.192.879 3.662-.562s-1.706-1.756-4.167-3.502c.11-.246.196-.467.337-.666 1.453.938 2.94 2.071 4.049 3.443l.444-2.582c-2.546-1.622-6.545-4.152-6.882-4.254 1.477.102 4.889 2.5 6.91 3.984l.418-2.167c-.976-.732-2.2-1.611-2.355-1.611.357-.104 1.515.465 2.412 1.219l.196-1.108 1.172.288-.407 1.683c.135.191.237.346.271.498 0 0-.126-.1-.311-.227l-.542 2.035c.678.495.974.773.561.539-.167-.117-.381-.219-.6-.397l-.649 2.765 6.094-.844-3.036-.66.201-1.083c.978.278 3.399 1.019 3.981 1.468l2.739-.385-.791-.211c.027-.299.047-.75.097-1.21.991.369 1.849.744 2.277 1.182l1.782-.099s-1.898-.808-4.059-1.646c0-.521-.05-1.108-.162-1.532 2.09.691 4.331 1.677 5.701 2.84h1.465s-7.886-5.215-18.298-6.102c-10.41-.839-11.853.668-11.853.668l-1.362 1.705 7.245 3.778c-.128.291-.234.565-.332.785-2.415-1.18-5.552-2.709-8.168-3.734l.151-.738 1.103-.09-.132-.559-2.207.197-.193.716a9.25 9.25 0 00-2.014-.596l-1.547.17c.052-.17.106-.387.135-.527l1.19-.148c-8.213-3.075-14.161-3.002-15.863-2.874l11.15 3.531.856-.152c-.052.242-.112.541-.214.984l-.279-.179-1.485.35c.037-.11.118-.262.139-.492l.983-.191c-2.956-1.374-11.37-2.191-11.37-2.191l-.435.978c1.686 0 7.25 2.47 7.25 2.47l3.122-.923-.054.088s-.029.152-.087.34l-.158.053h.109c-.08.296-.165.761-.328 1.279-1.072-.371-1.832-.611-1.832-.611l-1.999.32 3.593 1.075c-.084.495-.191.961-.35 1.456-2.64-1.063-4.722-1.867-4.722-1.867l-1.469.502-.297 1.21c-.861-.339-1.407-.531-1.407-.531l-1.372.415c.294.166 1.299.501 2.559 1.038l-.665 2.676c-.715-.222-1.6-.469-2.486-.754-.871-.235-2.891-.676-5.001-1.093.141-.59.32-1.064.521-1.627l2.559.609.193-.732s-.584-.211-2.416-.663c.193-.42.364-.833.589-1.274.874.106 1.701.361 2.343.727l.232-.972s-1.179-.193-2.188-.446c.276-.522.503-.81.785-1.293.634.077 1.218.317 1.743.483l.279-.88s-.804-.136-1.367-.451c.328-.342.621-.641.934-.91.245.099.449.127.587.127l.306-1.437-7.974-1.983-.297 1.794s4.978 1.122 7.117 1.492c-.298.186-.562.354-.848.617-.016-.033-.016-.062-.016-.092L2.137 86.94l-.347 1.771 3.587.678-.15.259-3.593-.558-.514 1.581v2.021c1.01.176 2.056.37 2.961.533-.172.449-.35 1.035-.482 1.603a37.992 37.992 0 00-2.479-.372v.737c.809.076 1.62.15 2.32.273-.084.227-.162.611-.233.874-.735-.011-1.411-.08-2.086-.133v.828c.676 0 1.302.059 1.921.074-.031.254-.078.576-.107.891-.637-.056-1.247-.081-1.816-.196v2.001l1.111.02c3.068.191 8.08.482 12.08.681l5.139.316c2.559.154 6.209.577 9.731.953 1.834.233 3.512.4 4.973.583l.472.015c1.902.153 6.316.604 11.304 1.03 3.454.237 4.535.104 4.897.059-1.502-.225-1.722-1.335-1.722-1.335l-.004-.067-.747.067h-.052l-.034-.046c-.018-.043-.044-.125-.07-.191l-.034-.135h.104l1.766-.264h.063l.023.077.081.187.021.135h-.125l-.836.147.02.023c.589.533 2.51.533 3.021.533l-.065-.158-.013-.077h.104c.613-.123 1.422-.655 1.446-.655 1.759-.727 3.676-.633 5.773.306l.563-.12h.1l.023.12.023.167.037.08-.125.023c.493.227.929.515 1.375.838l.049.026-.018.072-.058.247c1.096.637 1.438 1.7 1.438 1.72l-.178.07s-1.973-2.83-5.682-2.726c1.041.291 3.073.787 3.915 1.547.063.026 2.424 2.238 3.669 2.439.063-.123.17-.232.333-.422.233-.275.45-.521.647-.746.703-.828 1.245-1.493 2.217-2.054 1.083-.698 1.767-1.8 2.054-2.236.042-.078.057-.214.111-.214l.188.136c-.188.777-.801 1.499-1.258 2.06-.097.081-.156.179-.229.254l.107.24.005.087-.039.023-.85 1.044-.131-.072.053-.15c-.626.719-1.764 1.942-2.69 2.313-.083.051-.315.175-.469.175l-.05.125-.063-.101c-.063-.023-1.808-.489-2.99-1.405-1.205-.884-4.69-2.623-6.556-2.623l-.324.089c2.508.471 6.653 2.018 8.07 3.487l.062.031-.029.052-.112.469-.044.118-.104-.104c-2.776-1.979-5.439-3.261-9.496-3.1l-.464.129 1.721.452.11.021-.05.094s-.013.147-.227.299c-.386.268-1.38.457-3.797-.09l-.426.161-.04.056-.05-.056c-1.706-.713-4.051-1.064-7.821-1.064-1.331 0-3.261-.203-6.321-.528l-3.324-.345c-3.415-.398-8.077-.941-11.387-1.228-2.491-.304-5.69-.375-8.761-.472-2.554-.072-4.951-.107-6.708-.278l-2.905-.299a11.887 11.887 0 01-1.521-.137v.864h2.432c1.97-.077 3.188.136 4.394.27.825.171 1.615.243 2.685.289l1.82.05c1.934.08 3.781.128 5.874.329 1.09.214 2.295.289 3.415.382h.003c1.641.181 3.148.35 4.479.516 1.458.214 6.042.55 10.117.884 1.918.176 3.759.304 4.983.347 3.188.35 7.801.71 11.651.806.044 0 .105.041.136.057.044.029.07.072.07.121 0 .034-.042.077-.07.13-.031.067-.091.067-.138.067-3.864-.163-8.476-.47-11.696-.761-1.206-.07-3.039-.222-4.962-.42-3.212-.171-6.846-.489-8.909-.681-1.952.681-3.632 1.101-10.614.587-2.491-.199-4.97-.421-7.352-.638-2.915-.286-5.706-.589-8.317-.688v.884c1.351.263 3.223.492 6.121.535 4.735.198 13.107.647 16.037 1.878l-.057.168c-1.145 0-3.022-.291-5.041-.622-1.8-.311-3.679-.578-4.972-.657-.386 0-.95-.025-1.663-.025-2.627-.031-7.147-.031-10.425-.763v.639c2.656.657 5.497.913 7.404 1.06.46.046.887.078 1.221.094 2.567.201 10.154 1.148 12.715 1.998v-.302h.188c3.332 1.333 11.585 2.641 14.044 2.878 3.303.461 9.142.104 13.467-.237h.353-.026c.796-.086 1.649 0 2.406-.086-3.47.574-9.314 1.28-13.799 1.083-4.166 0-13.621-1.815-16.263-2.896l-1.886-.39c-2.309-.422-4.326-.898-9.776-1.282-4.706-.463-7.894-.737-10.046-1.355v1.355c1.046.154 2.182.251 3.141.251.274 0 .571-.032.788-.075 0 0-.308.043-.788.075-.733.035-1.917.091-3.141.035v1.012c2.186.245 5.283.375 9.066-.617 0 0-4.12 1.68-9.066 1.21v.755c4.621.37 11.33-1.242 12.254-1.414-.517-.947.381-.552.381-.552 3.329 3.618 15.721 3.233 15.721 3.233-12.158.71-14.18-1.553-15.721-2.437-6.006 1.867-10.105 1.988-12.635 1.648v1.499a172.942 172.942 0 0111.505 2.399s.096.079-.076-.41c7.258 3.123 16.512 4.328 20.48 3.914 9.45-1.163 15.056-.201 15.056-.201-5.841-.397-11.563.201-14.751.452-3.208.353-6.533.553-14.818-1.739-5.56-1.573-13.139-3.085-17.396-3.959v2.19c1.018.173 2.082.344 2.769.524 2.337.612 9.11 2.218 16.866 3.932h44.279c-7.962-2.193-13.929-3.083-17.59-3.697 6.513.641 12.977 2.047 19.025 3.697h9.439c-13.254-5.335-35.717-6.042-43.262-5.96-8.105.102-15.381-.408-18.348-2.156 3.946 1.606 13.827 1.993 18.348 1.924 10.979-.248 21.704.956 22.794 1.175 1.096.313 1.313.313 1.177-.096 10.399 1.661 16.366 3.535 20.235 5.113h10.843a96.132 96.132 0 01-4.55-1.552c-6.017-2.088-12.166-3.561-19.58-3.151 3.605-.562 11.223-.314 19.817 2.906m-8.208-11.352h.404c.049 0 .1 0 .123.067.042.03.062.076.062.094 0 .077-.021.104-.062.149-.023.032-.074.106-.123.106h-.404c-.052 0-.117-.075-.156-.106-.063-.046-.063-.073-.063-.149 0-.064.102-.161.219-.161m-1.907 0h.835c.067 0 .102 0 .148.067.042.03.055.076.055.094 0 .077-.014.104-.055.149-.047.032-.081.106-.148.106h-.835c-.058 0-.121-.075-.162-.106-.023-.046-.049-.073-.049-.149 0-.064.072-.161.211-.161m-2.03.049c.023-.049.102-.049.143-.049l1.083.097c.054 0 .08.046.11.064.031.021.031.104.031.149 0 .032-.013.152-.047.152-.029.07-.094.07-.144.07l-1.075-.116c-.039 0-.102-.075-.109-.106-.032-.046-.053-.073-.032-.149a.239.239 0 01.04-.112m-1.888.048l1.062-.097c.109-.053.185.067.185.161.058.077 0 .104-.031.149-.013.032-.061.106-.142.106l-.997.116c-.156 0-.235-.07-.266-.222 0-.128.076-.213.189-.213m13.056-18.341c.183.102.379.206.574.316l-.195 1.2c-.6-.463-1.07-.805-1.396-.994a8.441 8.441 0 011.017-.522m-27.153 5.404c.014-.39.05-.831.074-1.346.343.096.694.225 1.043.341 0 .449.055.966.195 1.323zm1.208-2.988c-.044.291-.091.857-.091 1.397-.362-.126-.7-.254-1.043-.372 0-.54-.06-1.025-.144-1.499.443.132.837.297 1.278.474m-4.876-1.363s1.49.293 3.431.89c-.023.316-.029.765-.114 1.331-1.377-.566-2.667-.986-3.504-1.303zm-.35 1.948c.702.167 2.168.488 3.661.927-.016.492 0 .984.096 1.39l-4.043-.986zm-9.877-.5c.365.184.751.4 1.129.62-.073.272-.178.471-.266.692a11.833 11.833 0 01-1.146-.739c.109-.229.189-.413.283-.573m-5.231-1.718l.563-.339s1.936.609 4.307 1.886c-.075.171-.177.331-.264.515-1.426-.903-3.009-1.637-4.606-2.062m3.78 4.777l1.331.658c-.098.316-.208.593-.297.82-.42-.227-.897-.428-1.403-.751.101-.243.213-.503.369-.727m-8.974-2.167c2.747 1.026 5.959 2.33 8.046 3.523-.29.645-.454 1.094-.517 1.206l-7.801-3.473zm-1.383-.548l-1.824 5.913c-.832-.229-1.748-.567-2.739-.917.063-.516.162-1.084.245-1.723l1.98.609.188-.732c-.417-.19-1.125-.436-2.009-.705.099-.441.183-.891.266-1.306l2.272.608.105-.682-2.169-.791c.112-.488.235-.975.378-1.443.56.211 1.792.654 3.307 1.169m-5.236-1.512l1.841-.281c-.054.156-.098.372-.138.535-.12.354-.24.913-.36 1.44l-1.699-.55c.147-.468.244-.799.356-1.144m-.597 2.06l1.753.518c-.112.42-.193.784-.313 1.279-.559-.175-1.149-.341-1.738-.565.071-.371.191-.839.298-1.232m-2.001-.574l1.604.454c-.083.391-.17.808-.305 1.272a28.07 28.07 0 00-1.639-.536c.102-.417.226-.841.34-1.19m-.585 2.093l1.706.492a14.294 14.294 0 01-.349 1.599c-.569-.246-1.149-.47-1.735-.717.112-.408.261-.92.378-1.374m-11.276 4.53a81.379 81.379 0 00-4.68-.415c.034-.269.123-.498.183-.793 2.794.556 4.497 1.208 4.497 1.208M6.34 89.648s.887-.176 1.409-.137c-.261.469-.509.775-.751 1.264-.478-.199-1.033-.612-1.033-.612zm-.964 1.783c.405 0 .828.057 1.276.113-.232.379-.413.808-.587 1.25-.37-.1-.79-.203-1.32-.299.186-.367.384-.709.631-1.064m-1.296.857c-.37-.09-.808-.16-1.382-.211l.735-.788.216.125s.533-.098 1.271 0c-.174.244-.335.588-.475 1.001a.9.9 0 01-.365-.127m.335 1.02c.505.126.944.19 1.367.26-.235.59-.423 1.09-.605 1.626a19.547 19.547 0 01-1.288-.263 10.8 10.8 0 01.526-1.623m-.111 4.825c-.313-.035-.63-.087-.929-.087 0-.045 0-.391.09-.912.346.083.717.083 1.082.107-.102.369-.205.703-.243.892m-.753-1.755c.08-.273.118-.545.159-.866.473.051.875.112 1.323.182a9.028 9.028 0 01-.287.805 13.155 13.155 0 00-1.195-.121m15.815 1.965c-4.792.022-10.146.022-14.435-.209.029-.329.082-.553.107-.862 3.193.168 9.535.309 9.535.309l.266-.833 1.333.692 3.319-.076a5.766 5.766 0 00-.125.979m.183-1.072l-4.508-1.166.338-1.079c1.449.524 3.027 1.052 4.311 1.473-.047.248-.113.537-.141.772m-3.88-3.087l.396-1.217 4.132 1.373c-.101.471-.24.931-.32 1.355-1.471-.471-2.964-1.037-4.208-1.511m4.706 4.11l.305-.714-.771-.248s.096-.237.201-.679c.756.219 1.37.441 1.758.563-.104.468-.206.829-.229.978l.313.071c-.509 0-1.037.029-1.577.029m-.114-2.435c.115-.392.219-.857.357-1.354l1.756.558c-.104.5-.211.969-.299 1.338a17.342 17.342 0 01-1.814-.542m3.167 2.379c-.412 0-.781 0-1.219.027.007-.071.079-.461.149-.933l1.957-.116c-.071.363-.113.661-.149.978h.216c-.276.044-.612.044-.954.044m.898-1.202c-.503-.091-1.111-.29-1.841-.492.101-.359.189-.85.281-1.32l1.774.61c-.031.374-.157.82-.214 1.202m-1.451-2.432c.084-.492.229-1.037.345-1.542l1.766.484c-.115.566-.227 1.111-.313 1.701-.615-.184-1.206-.418-1.798-.643m11.472 4.992l-.666.122h-.015c-.065 0-.088 0-.157-.042-.019-.033-.039-.051-.078-.156 0-.045 0-.066.039-.112.021-.036.067-.082.123-.082l.667-.083.086-.062v.114l.054.158.042.142h-.095zm41.03 3.933l-1.461.125c-.105.065-.222-.039-.222-.173 0-.021 0-.08.07-.098.037-.071.058-.094.121-.094l1.481-.076c.1 0 .199.049.199.17.015.078-.063.146-.188.146m2.361-.387a.206.206 0 01.138-.075l.914-.091c.15 0 .242.059.242.166.013.094-.066.242-.173.242l-.949.077a.168.168 0 01-.203-.171c-.003-.054 0-.076.031-.148m-.611-.165c.077 0 .137 0 .146.059.042.032.096.081.102.107 0 .072-.005.094-.06.147-.042.023-.078.094-.125.094l-1.177.077c-.106 0-.198-.059-.198-.171-.018-.076.071-.173.178-.222zm-2.773-.775c.018-.076.081-.076.141-.076l1.25-.237h.157c.028.12.091.147.091.191 0 .046 0 .096-.063.155l-.028.021-.087.023-1.252.227h-.118v-.03h-.028c-.05-.053-.078-.077-.078-.117 0-.081 0-.104.015-.157m-1.719.032h1.166c.031 0 .083.021.136.021.055.103.055.118.055.166 0 .053 0 .083-.055.104-.052.051-.105.051-.136.051h-1.166c-.042 0-.09 0-.116-.051-.054-.021-.075-.051-.075-.104 0-.117.086-.187.191-.187m.448 1.168c.081 0 .186.08.186.214 0 .132-.139.17-.232.17l-.966-.132c-.091-.015-.176-.125-.156-.194.044-.077.138-.171.201-.171zm-1.985-1.277l.866.232c.088.015.152.117.136.168-.03.193-.121.219-.238.219l-.834-.24c-.115-.03-.185-.132-.156-.25.041-.129.121-.175.226-.129m.444 1.165c.049.023.088.023.106.113.047.059.047.08.035.104-.035.08-.066.134-.116.134-.025.015-.08.08-.141 0l-.735-.179c-.112 0-.17-.148-.138-.225.013-.053.044-.094.125-.12.026-.049.076-.049.118-.049zm-11.908-8.165c.509-.062.876-.099 1.132-.062.086 0 .173.107.173.185 0 .096-.086.219-.183.219-.235 0-.589 0-1.073.045H59.6l-.013-.128-.042-.062-.01-.075-.035-.122zm-2.215.219l1.248-.121.085-.029v.076c0 .074 0 .115.018.243 0 0 .035.083 0 .083l-.075.029-1.224.069-.068.042-.015-.072-.042-.152-.028-.168zm-2.643.35l1.84-.182.135-.045v.392h-.08l-1.813.246-.082.08-.031-.106-.023-.219-.018-.165h.072zm-.463 1.669l.016.076.021.216.021.029.027.063-.097.056-1.625.294H52.6L52.588 98l-.088-.196v-.056l-.008-.063h.106l1.657-.299zm-2.108-1.178L54 95.859l.13-.026.013.099v.329h-.107l-1.761.283h-.07l-.047-.102-.039-.181-.055-.076zm-2.622.413l1.682-.305.105-.032v.08c0 .102 0 .189.029.286v.033h-.104l-1.628.286-.083.028-.023-.08-.052-.235-.029-.033zm-.303 1.596v.1l.018.155.026.029.021.107-.084.05-1.818.209-.052.089-.023-.118-.029-.126-.016-.054-.032-.071h.115l1.754-.326zm-2.239-1.204l1.874-.331h.07l.016.087v.024c0 .102 0 .174.022.203l.011.093-.099.028-1.823.268h-.082l-.01-.074-.065-.179-.034-.074zm-2.689.419l1.732-.275h.088v.107c.008.048.053.122.053.168v.123l-.076.048-1.685.224h-.112l-.016-.075-.031-.149-.039-.141zm-2.203.395l1.114-.194h.141v.309l.037.081-.127.045-1.041.148H42.2l-.05-.061-.06-.189-.021-.14h.08zm-6.495 1.568l-.023-.1-.04-.241v-.069h.081l.75-.146.1-.055.005.083c.016.118.016.187.047.24l.021.097-.073.062-.767.083zm.384 1.387c-.04 0-.084-.056-.092-.125 0-.109 0-.128.052-.176.014-.028.073-.07.107-.07l.769-.104h.079l.011.08.091.142.034.128-.125.018-.783.135c-.053 0-.11 0-.143-.028m1.575 1.416c-.235.059-.42.08-.559.103-.083.026-.146 0-.161-.023-.022 0-.071-.053-.082-.129-.018-.046 0-.067.011-.09.052-.082.081-.147.13-.147.141-.028.328-.052.509-.113l.107-.022.034.083.052.222.049.067zm.232-3.213l-.013-.118h-.016l-.034-.155-.053-.104h.116l.681-.136h.102v.115c.021.071.021.099.058.15l.005.102h-.086l-.637.146zm.444 1.468l-.007-.065-.1-.203-.019-.145h.125l.645-.077.07-.05.008.068.08.248s.038.078.038.102h-.125l-.616.081zm1.28 1.345l-.618.113h-.06l-.021-.028c-.023-.085-.073-.158-.073-.158l-.091-.189h.164l.595-.096.073-.018.031.059.083.245.05.051zm.199-3.14l-.016-.071-.008-.221-.016-.105h.097l.879-.139h.057l.06.096v.171l.053.083h-.134l-.866.186zm.415 1.505l-.04-.123-.067-.191-.031-.107.138-.019.908-.18h.094l.034.105.047.125.008.056.047.084-.102.05-.962.2zm.534 1.426l-.033-.054c-.026-.055-.053-.096-.087-.168l-.054-.106.115-.016 1.048-.169h.061l.044.085.021.03.104.14.013.089-.117.018-1.072.15h-.043zm1.863 1.411l-.537.059h-.087v.032h-.008l.008-.032c-.021.032-.12 0-.125-.059-.08 0-.094-.031-.107-.16 0 0 .013-.023.027-.072.06-.026.085-.153.185-.153l.536-.066h.039l.058.066.091.225.047.129zm.079-3.301l-.027-.051-.028-.105-.036-.112-.058-.112h.149l.918-.166h.083v.113l.039.053.011.112.05.067h-.118l-.882.201zm.519 1.547l-.029-.084-.018-.07-.031-.093-.047-.154h.097l.864-.119.083-.051.031.107.018.063.023.154.04.093h-.107l-.838.154zm1.468 1.369l-.665.153-.079.048-.023-.075c-.023-.126-.083-.193-.098-.214l-.071-.107h.146l.047-.025.661-.118h.065l.018.103.065.147.054.087h-.12zm.165-3.266l-.023-.054-.021-.188-.036-.053-.018-.069.099-.029 1.589-.271h.115v.072l.044.199.013.098h-.109l-1.583.264zm.52 1.514l-.014-.018-.053-.188h-.018l-.005-.152.076-.023 1.502-.174h.076l.026.08v.024l.06.118.04.128-.125.018-1.474.188h-.091zm2.06 1.415l-1.294.219h-.054l-.023-.077c-.063-.04-.11-.143-.146-.163l-.039-.155h.151l1.307-.191h.1l.015.12.019.051.018.067.01.129zm2.267-1.971l-1.769.197-.088.024-.016-.076-.031-.042-.04-.182v-.045l.087-.021 1.758-.314h.099l.008.115.074.221.002.045zm.439-1.835l-.063.029-.044-.085-.031-.127-.022-.071-.018-.061.115-.035 1.493-.294h.086l.067.115.013.214.016.061-.096.043zm.414 1.712l-.026-.122-.031-.1-.037-.115-.015-.076h.109l1.523-.274h.07l.013.121.086.153.018.141h-.104l-1.526.25zm2.163 1.352l-1.516.24h-.097l-.039-.051-.073-.213-.023-.091h.12l1.542-.229h.081l.039.054.058.176v.018l.036.096zm.402-1.764l-.031-.073-.029-.033-.044-.168-.002-.103h.107l1.544-.211h.083l.018.083.023.053.031.112.029.112h-.102l-1.552.229h-.075zm2.064 1.474l-1.467.194h-.081l-.062-.072-.035-.176-.055-.115h.125l1.474-.232h.099l.013.018.031.229.07.154zm.012-3.538v-.075l-.083-.247-.029-.074.13-.018 1.662-.235h.07l.031.074v.179l.036.074-.117.022-1.6.299h-.1zm.426 1.723l-.019-.082-.036-.196-.018-.098h.122l1.55-.216.076-.055.011.083.055.24v.097l-.092.062-1.555.165zm2.019 1.432l-1.526.229h-.065l-.029-.015-.063-.232-.023-.119h.118l1.531-.245h.083l.008.066.044.263.066.053zm.162-3.569l-.018-.054-.021-.181-.045-.142h.084l1.148-.199h.073l.019.076.021.219.045.105-.112.015-1.109.161zm.425 1.813v-.074l-.071-.249-.013-.072h.11l1.072-.125h.102l.018.071.029.1.026.026.01.083-.091.089-1.104.098zm1.597 1.55l-1.114.125h-.083l-.017-.107-.068-.194-.01-.094h.1l1.095-.158h.108v.078l.073.174.021.066zm.217-3.689l-.083.028-.03-.08v-.123l-.021-.112-.052-.062h.133l1.57-.268h.076l.011.072c0 .097.023.142.023.252l.06.042h-.115zm.294 1.816l-.037-.072v-.054l-.013-.071-.034-.171h.107l1.563-.198h.094l.011.071.065.184.002.136h-.083l-1.575.176h-.1zm.368 1.697l-.023-.07-.063-.081v-.102l-.021-.066h.115l1.591-.25h.12l.013.068v.182l.031.021.019.123h-.089l-1.607.174h-.086zm3.851-2.22l-1.633.211h-.102l-.013-.083-.047-.171-.023-.096h.115l1.625-.221.12-.073v.14l.016.189.029.104zm.188 1.358h.13l.019.08v.214l.034.068h-.092l-1.635.225-.06.023-.023-.066-.031-.25-.026-.141h.081zm-.514-3.255l-1.646.286h-.096l-.019-.096-.031-.2-.013-.122h.091l1.666-.196h.083l.047.066.028.183v.08h-.11zm-3.113 5.784l-.087.05v-.096l-.023-.043-.022-.147-.008-.113.078-.022c.616-.051 1.159-.168 1.645-.24h.109l.013.072.04.252.033.052-.112.065c-.492.081-1.05.124-1.666.17m1.999 1.188l-.295.071c-.06 0-.122 0-.148-.071-.04-.023-.056-.076-.079-.099 0-.072.023-.146.023-.146.056-.091.115-.091.165-.091l.255-.031h.103v.089l.023.081.023.12.044.076h-.114zm.313-1.425l-.029-.113-.023-.208-.01-.077.112-.032c.67-.059 1.208-.059 1.547-.059.047 0 .092 0 .133.018 0 .041.044.073.044.126 0 .042-.044.16-.044.16-.042.051-.086.051-.133.051-.326 0-.826.022-1.507.107zM66.441 98l-1.088.133h-.109v-.087l-.055-.168-.021-.148h.125l1.106-.119h.083l.021.074.026.193.024.122zm.31 1.408c.014 0 .1.046.152.067.023.029.031.121.031.168 0 .033-.008.106-.031.106-.052.056-.138.056-.152.056-.203 0-.599.02-1.134.084h-.078l-.019-.084-.06-.163v-.168h.109c.555-.02.961-.066 1.182-.066m-.57-3.223l-1.148.108h-.102v-.085l-.049-.196v-.104h.117l1.154-.171.055-.042.022.139.055.199.018.153h-.122zm-2.448 7.105h-.107l-.005-.076-.029-.179-.005-.148h.086c.306-.07.512-.07.657-.07.058 0 .103.07.155.129.026.031.067.089.067.122 0 .049-.042.075-.067.146-.052.022-.097.049-.155.049-.111 0-.317.027-.597.027m3.536-.403c-.6.403-1.145.729-1.376 1.065-.735 1.069-1.277 1.544-1.277 1.544l-.227.121.044-.217c.357-1.411 2.15-3.097 2.236-3.146l.037-.021h.015c1.19-.346 2.57-1.259 2.766-2.294h.198c.14 1.406-1.211 2.236-2.416 2.948m-.074-5.448h.074l.619-.076c.052 0 .078.022.156.046.044.03.063.123.063.171.014.03 0 .104-.057.122-.005.028-.083.046-.127.046l-.595.129-.103.029-.019-.159-.01-.138v-.17zm1.038 0l.154-.053.619-.412.037-.028.06.028.326.122.091.015-.039.131-.454.636-.047.067-.052-.025-.54-.339zm.165-1.36h-.084v-.066c-.271 0-.718.02-1.205.066h-.07v-.066l-.032-.275v-.072l.086-.027c.494-.013.89-.013 1.221-.074v-.096h1.484l.1-.927c-.872.146-5.633 1.293-7.789 1.01h-.062v-.038l-.106-.582-.051-.103.092-.018 8.538-1.189h.076l.058.053.081.484.497.382.013.04v.024s-.159.908-.908 1.328c-.512.328-1.175.36-1.939.146m-.83 9.979l.83-.129c.075 0 .122 0 .165.083.054 0 .054.046.054.152.042.045 0 .116-.016.146-.039.046-.082.078-.128.078l-.877.096c-.028 0-.088 0-.129-.053a.136.136 0 01-.069-.121c-.01-.101.053-.252.17-.252m-1.127.151h.542c.032 0 .094 0 .109.07.016.031.079.077.079.109 0 .043-.063.123-.079.134-.015.031-.078.031-.109.031h-.542c-.055 0-.081 0-.139-.031-.068-.011-.096-.091-.096-.134.001-.077.136-.179.235-.179m-39.066 8.087c8.351-.317 12.327.668 12.327.668-10.89-1.085-8.974.393-17.965-.614-10.582-1.16-12.061-3.03-12.061-3.03 2.119.769 10.556 3.243 17.699 2.976m67.567-6.073l1.072.107c.101.025.171.092.161.214a.18.18 0 01-.213.15l-1.049-.096c-.06 0-.107-.023-.115-.105-.058 0-.094-.071-.063-.09.005-.073.118-.203.207-.18m-2.221-.122h1.372c.023 0 .083.022.143.1 0 0 .061.081.061.13 0 .025-.061.072-.061.092a.34.34 0 01-.143.071h-1.372a.177.177 0 01-.141-.071c-.042-.02-.049-.067-.049-.092 0-.131.083-.23.19-.23m-2.348 0c.076-.072.104-.072.16-.072l1.164.072a.192.192 0 01.141.229c0 .072 0 .092-.047.121-.023.016-.055.042-.143.042l-1.145-.09c-.045 0-.082-.047-.155-.072a.85.85 0 01-.015-.13c-.001-.078.009-.1.04-.1m-2.439.229c.02-.049.085-.107.136-.107l1.158-.123c.099 0 .207.1.207.229.026.072-.091.137-.175.163l-1.146.105c-.067 0-.132 0-.159-.023-.028-.082-.063-.107-.063-.152-.007-.02 0-.092.042-.092m-2.395.072c.034-.047.087-.072.117-.072l1.268-.107c.1 0 .198.107.2.179 0 .09-.077.195-.189.195l-1.242.096c-.049.018-.12-.018-.149-.047-.047 0-.07-.049-.07-.154-.001-.025.02-.07.065-.09m-1.884-.179h1.059c.068 0 .123 0 .138.058.032.049.068.074.068.122 0 .049-.036.09-.068.172-.015.023-.07.023-.138.023h-1.059c-.025 0-.084 0-.11-.023-.062-.082-.075-.123-.075-.172 0-.073.088-.18.185-.18m-1.967-.164c.034-.03.06-.03.135-.03l1.065.194c.031 0 .076.058.11.107.026.025.026.072.026.092-.026.071-.042.122-.097.152-.034.023-.109.023-.109.023l-1.07-.195c-.127-.047-.157-.122-.157-.202.018-.099.029-.099.097-.141m-17.443-.129c.049 0 .101.027.13.099.047 0 .047.072.047.072 0 .1-.034.123-.076.18-.031 0-.08.049-.161.049-2.075-.229-7.19-2.241-7.378-2.318-.132-.027-.19-.168-.132-.265.054-.096.175-.179.261-.13.035.034 5.279 2.043 7.309 2.313m-1.396.27c0 .023-.033.13-.042.13-.032.025-.091.072-.154.072-1.645.09-3.527.195-6.94.09-.135 0-.19-.09-.19-.163 0-.049.008-.13.036-.13.067-.077.111-.1.154-.1 3.405.123 5.272 0 6.914-.072.065 0 .109 0 .148.072.04.002.074.024.074.101m-7.545-3.738c.107.031 2.64.431 3.501.882l-.053.181c-.085 0-2.141-.029-3.499-.913zm-5.001 2.167c.083-.023.1-.023.151-.023h.101c.864.023 7.717.345 9.492.659.062 0 .096.059.12.08.042.043.065.075.065.11-.023.056-.065.127-.096.127-.027.062-.027 0-.081.062h-.057c-1.874-.299-9.486-.67-9.543-.67-.065 0-.133-.023-.151-.049-.014-.026-.065-.08-.065-.149 0-.069.05-.096.064-.147m4.025 1.701c0 .025-.029.072-.052.092-.021.045-.094.071-.133.071h-1.066a.156.156 0 01-.136-.071.104.104 0 01-.065-.092c0-.13.094-.229.201-.229h1.066c.04 0 .112.022.133.1 0-.001.052.08.052.129m-1.904-.107c0 .058-.018.107-.061.132-.037.047-.088.047-.141.047l-1.043-.072c-.118-.049-.217-.13-.217-.229.034-.072.06-.072.099-.144.042-.027.097-.027.151-.027l1.062.099c.026 0 .088.03.131.072.019 0 .048.099.019.122m-3.535-.835c.047 0 .096-.043.146 0l1.063.271c.104.054.141.152.125.297-.021.102-.125.144-.263.144l-1.023-.387c-.047 0-.086-.054-.115-.07-.058-.062-.058-.091-.034-.133a.404.404 0 01.101-.122m-2.286-.463l1.06.244c.092.023.162.096.139.219-.016.067-.136.165-.219.123l-1.034-.166c-.085 0-.119-.021-.148-.106-.04-.024-.04-.069-.04-.149a.194.194 0 01.242-.165m-2.411-.614l1.24.295c.133.023.186.1.165.264-.032.081-.116.205-.243.104l-1.253-.345c-.112 0-.159-.106-.13-.197.01-.075.125-.121.221-.121m-2.441-.467l.955.214c.114.032.206.152.143.299 0 .032-.029.047-.058.075-.08.053-.117.053-.159.053l-.937-.205c-.065 0-.111-.07-.125-.116-.028-.075-.06-.106-.028-.152a.207.207 0 01.209-.168m-1.793-.227l.759.13c.023 0 .044.049.104.067.053.056.058.094.053.171 0 .027-.053.073-.113.104-.026.075-.057.075-.104.075l-.747-.152c-.049 0-.081-.027-.143-.104-.016-.018-.024-.064-.024-.094.009-.163.119-.197.215-.197m-1.571-.273l.971.096c.093.041.125.11.125.178 0 .13-.083.227-.201.197l-.932-.12c-.116-.043-.19-.126-.188-.198.001-.097.093-.153.225-.153m-15.655.82l-.084-.235c3.473-1.939 16.449.351 20.802 1.526l-.045.188c-.472 0-3.329-.405-6.316-.868l-4.304-.611c-3.416-.513-6.886-.513-10.053 0m12.676 3.318c-1.808-.296-5.546-.771-8.006-.771v-.219c1.497-.392 6.068.154 8.229.471l.753.121c.047 0 6.877.866 8.701.705l.05.224c-1.872.372-5.224.173-9.727-.531m18.023.983l-.253-.17-.208-.203.295.023c1.036.27 2.105.443 3.271.562h.082c5.995.763 11.602-.212 14.92-.727l1.429-.23c.95-.141 1.799-.322 2.442-.462.66-.128 1.01-.197 1.185-.273-.243-.09-.506-.273-.728-.368-3.047.816-15.012 2.265-23.747 1.172-16.024-1.978-25.766-2.576-28.967-1.761l-.106-.289c1.92-1.034 10.363-.766 15.119-.08 4.597.67 16.58 1.598 19.961 1.738 5.463.181 11.2-.268 17.081-1.197l-.068-.077-.026-.022c0-.042-.005-.072-.034-.072-.018-.072.029-.099.047-.179.013-.038.082-.11.116-.11.062 0 .127.072.138.11 1.474 1.28 5.025 1.779 7.771 1.966 2.746.198 11.358.543 15.141.649.109 0 .193.093.193.212 0 .103-.084.154-.221.154-3.781-.089-12.07 0-14.812-.272-4.483-.467-4.827-.979-6.074-1.321-9.395 1.845-13.556 3.313-23.947 1.227" fill="#0067B1"/></svg>